<svg width="300" height="300" viewBox="0 0 300 300" fill="none" xmlns="http://www.w3.org/2000/svg">
  <!-- Background Circle -->
  <circle cx="150" cy="150" r="140" fill="#EBF4FF" />
  
  <!-- Mountain Peaks -->
  <path d="M50 200 L120 100 L150 150 L180 80 L250 200 Z" fill="#A5B4FC" />
  <path d="M30 220 L100 140 L130 180 L170 120 L270 220 Z" fill="#818CF8" />
  
  <!-- Sun -->
  <circle cx="220" cy="80" r="30" fill="#FBBF24" />
  
  <!-- Water -->
  <path d="M30 220 C70 210 130 230 170 210 C210 190 250 210 270 220 L270 260 L30 260 Z" fill="#93C5FD" />
  
  <!-- Lotus Flower -->
  <g transform="translate(150, 200) scale(0.8)">
    <!-- Petals -->
    <path d="M0 -30 C10 -20 20 -25 20 -10 C20 0 10 10 0 10 C-10 10 -20 0 -20 -10 C-20 -25 -10 -20 0 -30Z" fill="#F9A8D4" />
    <path d="M0 -30 C10 -20 20 -25 20 -10 C20 0 10 10 0 10 C-10 10 -20 0 -20 -10 C-20 -25 -10 -20 0 -30Z" fill="#F9A8D4" transform="rotate(45)" />
    <path d="M0 -30 C10 -20 20 -25 20 -10 C20 0 10 10 0 10 C-10 10 -20 0 -20 -10 C-20 -25 -10 -20 0 -30Z" fill="#F9A8D4" transform="rotate(90)" />
    <path d="M0 -30 C10 -20 20 -25 20 -10 C20 0 10 10 0 10 C-10 10 -20 0 -20 -10 C-20 -25 -10 -20 0 -30Z" fill="#F9A8D4" transform="rotate(135)" />
    <path d="M0 -30 C10 -20 20 -25 20 -10 C20 0 10 10 0 10 C-10 10 -20 0 -20 -10 C-20 -25 -10 -20 0 -30Z" fill="#F9A8D4" transform="rotate(180)" />
    <path d="M0 -30 C10 -20 20 -25 20 -10 C20 0 10 10 0 10 C-10 10 -20 0 -20 -10 C-20 -25 -10 -20 0 -30Z" fill="#F9A8D4" transform="rotate(225)" />
    <path d="M0 -30 C10 -20 20 -25 20 -10 C20 0 10 10 0 10 C-10 10 -20 0 -20 -10 C-20 -25 -10 -20 0 -30Z" fill="#F9A8D4" transform="rotate(270)" />
    <path d="M0 -30 C10 -20 20 -25 20 -10 C20 0 10 10 0 10 C-10 10 -20 0 -20 -10 C-20 -25 -10 -20 0 -30Z" fill="#F9A8D4" transform="rotate(315)" />
    
    <!-- Center -->
    <circle cx="0" cy="0" r="10" fill="#FBBF24" />
  </g>
  
  <!-- Japanese Characters for "OASiS" -->
  <text x="150" y="40" font-family="'Noto Sans JP', sans-serif" font-size="24" font-weight="bold" fill="#4F46E5" text-anchor="middle">オアシス</text>
</svg> 